<svg height="512pt" viewBox="-14 0 512 512.0008" width="512pt" xmlns="http://www.w3.org/2000/svg"><path d="m92.734375 279.171875c0 25.605469-20.761719 46.367187-46.367187 46.367187-25.609376 0-46.367188-20.761718-46.367188-46.367187 0-25.609375 20.757812-46.367187 46.367188-46.367187 25.605468 0 46.367187 20.757812 46.367187 46.367187zm0 0" fill="#a5b0bc"/><path d="m484.21875 279.171875c0 25.605469-20.757812 46.367187-46.363281 46.367187-25.609375 0-46.367188-20.761718-46.367188-46.367187 0-25.609375 20.757813-46.367187 46.367188-46.367187 25.605469 0 46.363281 20.757812 46.363281 46.367187zm0 0" fill="#a5b0bc"/><path d="m388.433594 146.410156c.003906-2.097656-.035156-4.210937-.121094-6.328125-3.183594-78.050781-68.085938-140.175781-146.203125-140.082031-80.625.101562-145.953125 65.492188-145.953125 146.140625v.222656c.019531 13.816407-4.332031 27.320313-12.882812 38.171875-27.800782 35.28125-44.121094 80.03125-43.296876 128.625 1.898438 112.078125 93.582032 200.628906 205.664063 198.8125 110.210937-1.785156 199-91.683594 199-202.320312 0-47.066406-16.074219-90.371094-43.027344-124.742188-8.621093-10.992187-13.203125-24.53125-13.179687-38.5zm0 0" fill="#4a5660"/><path d="m70.882812 313.160156c-.824218-48.59375 15.496094-93.34375 43.296876-128.625 8.550781-10.851562 12.902343-24.355468 12.882812-38.171875 0-.074219 0-.148437 0-.222656 0-75.464844 57.203125-137.566406 130.613281-145.320313-5.121093-.542968-10.3125-.8281245-15.566406-.820312-80.625.101562-145.953125 65.492188-145.953125 146.140625v.222656c.019531 13.816407-4.332031 27.316407-12.882812 38.171875-27.800782 35.277344-44.121094 80.03125-43.296876 128.625 1.898438 112.078125 93.582032 200.628906 205.664063 198.8125 4.050781-.066406 8.066406-.265625 12.054687-.566406-103.332031-7.746094-185.023437-92.519531-186.8125-198.246094zm0 0" fill="#3d4851"/><path d="m242.328125 464.097656c39.105469-.003906 75.90625-14.988281 103.628906-42.195312 23.367188-22.9375 42.753907-58.988282 46.199219-91.847656.777344-7.386719.742188-15.757813-3.671875-22.113282-4.597656-6.625-13.585937-9.464844-18.082031-16.515625-5.265625-8.253906-5-19.324219-5-28.726562 0-47.929688-43.71875-58.699219-106.585938-33.917969-10.601562 4.179688-22.4375 4.179688-33.042968 0-62.867188-24.78125-106.585938-14.011719-106.585938 33.914062 0 9.40625.265625 20.476563-5 28.730469-4.496094 7.050781-13.480469 9.890625-18.082031 16.515625-4.410157 6.355469-4.445313 14.726563-3.671875 22.109375 3.449218 32.863281 22.832031 68.914063 46.199218 91.847657 27.722657 27.210937 64.527344 42.195312 103.628907 42.195312h.066406zm0 0" fill="#a5b0bc"/><path d="m315.445312 292.796875c-4.265624 0-7.726562-3.460937-7.726562-7.726563v-14.222656c0-4.269531 3.460938-7.726562 7.726562-7.726562 4.269532 0 7.726563 3.457031 7.726563 7.726562v14.222656c0 4.265626-3.457031 7.726563-7.726563 7.726563zm0 0" fill="#333a41"/><path d="m325.132812 317.824219h-19.375c-4.265624 0-7.726562-3.460938-7.726562-7.726563 0-4.269531 3.460938-7.726562 7.726562-7.726562h19.375c4.269532 0 7.726563 3.457031 7.726563 7.726562 0 4.265625-3.457031 7.726563-7.726563 7.726563zm0 0" fill="#ffbfc5"/><path d="m169.144531 292.796875c-4.269531 0-7.726562-3.460937-7.726562-7.726563v-14.222656c0-4.269531 3.457031-7.726562 7.726562-7.726562 4.265625 0 7.726563 3.457031 7.726563 7.726562v14.222656c0 4.265626-3.460938 7.726563-7.726563 7.726563zm0 0" fill="#333a41"/><path d="m178.832031 317.824219h-19.375c-4.269531 0-7.726562-3.460938-7.726562-7.726563 0-4.269531 3.457031-7.726562 7.726562-7.726562h19.375c4.265625 0 7.726563 3.457031 7.726563 7.726562 0 4.265625-3.460938 7.726563-7.726563 7.726563zm0 0" fill="#ffbfc5"/><g fill="#333a41"><path d="m242.292969 345.863281c-7.328125 0-14.214844-3.074219-18.898438-8.429687-2.808593-3.210938-2.480469-8.09375.730469-10.902344 3.214844-2.808594 8.09375-2.480469 10.902344.734375 1.75 2 4.398437 3.148437 7.265625 3.148437 2.871093 0 5.519531-1.148437 7.269531-3.148437 2.808594-3.214844 7.6875-3.542969 10.902344-.734375 3.210937 2.808594 3.539062 7.691406.730468 10.902344-4.683593 5.359375-11.570312 8.429687-18.902343 8.429687zm0 0"/><path d="m268.566406 311.113281c-4.269531 0-7.726562-3.457031-7.726562-7.726562 0-4.398438-3.582032-7.980469-7.984375-7.980469-1.976563 0-3.878907.738281-5.359375 2.085938-2.949219 2.683593-7.453125 2.683593-10.402344 0-1.480469-1.347657-3.382812-2.085938-5.359375-2.085938-4.402344 0-7.984375 3.582031-7.984375 7.980469 0 4.269531-3.457031 7.726562-7.726562 7.726562-4.265626 0-7.722657-3.457031-7.722657-7.726562 0-12.921875 10.511719-23.433594 23.433594-23.433594 3.703125 0 7.3125.875 10.558594 2.523437 3.25-1.648437 6.859375-2.523437 10.5625-2.523437 12.921875 0 23.433593 10.511719 23.433593 23.433594 0 4.269531-3.457031 7.726562-7.722656 7.726562zm0 0"/></g></svg>