<svg xmlns="http://www.w3.org/2000/svg" viewBox="0 0 128 128"><defs><style>.cls-1{isolation:isolate;}.cls-2{mix-blend-mode:multiply;}.cls-3{fill:#bcc3ce;}.cls-4{fill:#878c99;}</style></defs><title>hippo</title><g class="cls-1"><g id="icons" class="cls-2"><path class="cls-3" d="M107,72h0A21.06,21.06,0,0,0,94.21,52.69a4,4,0,0,1-2.33-3.34C90.59,34.58,78.6,23,64,23S37.41,34.58,36.12,49.36a4,4,0,0,1-2.33,3.34A21.06,21.06,0,0,0,21,72h0A21.06,21.06,0,0,0,38.21,92.63a4,4,0,0,1,1.07.37H88.72a4,4,0,0,1,1.07-.37A21.06,21.06,0,0,0,107,72Z"/><path class="cls-4" d="M92,31a27.5,27.5,0,0,1-5.46,3.8A28.13,28.13,0,0,0,78,26.91,28.89,28.89,0,0,1,82,21,7,7,0,0,1,92,31Z"/><path class="cls-4" d="M50,26.91a28.13,28.13,0,0,0-8.46,7.84A27.5,27.5,0,0,1,36,31,7,7,0,1,1,46,21,28.89,28.89,0,0,1,50,26.91Z"/><path class="cls-4" d="M41.22,95.08A16,16,0,0,0,56,105H72a16,16,0,0,0,14.78-9.92A4.08,4.08,0,0,1,88.72,93H39.28A4.08,4.08,0,0,1,41.22,95.08Z"/><circle cx="75" cy="43" r="4"/><circle cx="53" cy="43" r="4"/><path class="cls-4" d="M89.67,65.77c1.08,2.47-.58,5.47-3.71,6.7s-6.55.22-7.63-2.25.58-5.47,3.71-6.7S88.59,63.3,89.67,65.77Z"/><path class="cls-4" d="M38.33,65.77c-1.08,2.47.58,5.47,3.71,6.7s6.55.22,7.63-2.25-.58-5.47-3.71-6.7S39.41,63.3,38.33,65.77Z"/></g></g></svg>