<svg xmlns="http://www.w3.org/2000/svg" viewBox="0 0 128 128"><defs><style>.cls-1{isolation:isolate;}.cls-2{mix-blend-mode:multiply;}.cls-3{fill:#878c99;}.cls-4{fill:#5a6070;}.cls-5{fill:#3e4451;}</style></defs><title>koala</title><g class="cls-1"><g id="icons" class="cls-2"><ellipse class="cls-3" cx="64" cy="64" rx="41" ry="34"/><path class="cls-4" d="M50.37,31.92c-13.78,4-24.19,14-26.76,26.2C19,54,20.15,49.44,20.15,49.44A12.53,12.53,0,0,0,16.57,53c-1.74-6.94.78-13.89.89-14.21A32.6,32.6,0,0,0,13,42.33S13.89,21,30.87,21C39.82,21,46.32,25.88,50.37,31.92Z"/><path class="cls-4" d="M110.54,38.79c.11.32,2.63,7.27.89,14.21a12.53,12.53,0,0,0-3.58-3.56S109,54,104.39,58.12c-2.57-12.2-13-22.17-26.76-26.2,4-6,10.55-10.92,19.5-10.92,17,0,17.87,21.33,17.87,21.33A32.6,32.6,0,0,0,110.54,38.79Z"/><circle cx="81" cy="56" r="4"/><circle cx="47" cy="56" r="4"/><path class="cls-5" d="M70.66,74.56C72,79.41,69.07,84,64,84s-8-4.59-6.66-9.44S61.7,66,64,66,69.28,69.69,70.66,74.56Z"/></g></g></svg>